<svg width="107" height="80" viewBox="0 0 107 80" fill="none" xmlns="http://www.w3.org/2000/svg"><path d="M9.086 73.332h2.877v4.526c-1.272 1.418-3.029 2.113-5.3 2.113-1.878 0-3.483-.634-4.755-1.871C.636 76.862 0 75.293 0 73.392c0-1.901.666-3.47 1.969-4.738 1.302-1.267 2.877-1.901 4.724-1.901 1.848 0 3.453.603 4.816 1.81l-1.484 2.143c-.576-.513-1.09-.845-1.575-1.026-.485-.18-1-.272-1.575-.272-1.09 0-1.999.363-2.756 1.117-.757.724-1.12 1.72-1.12 2.927s.363 2.173 1.06 2.897c.726.725 1.574 1.087 2.574 1.087.999 0 1.817-.181 2.483-.574v-3.53h-.03zm19.987 6.518l-1.181-2.776H22.47l-1.182 2.776H18.23l5.543-12.795h2.786l5.542 12.795h-3.028zm-3.877-8.993l-1.605 3.712h3.21l-1.605-3.712zm24.323.453c0 2.052-.818 3.38-2.453 3.983l3.24 4.587h-3.513l-2.847-4.074h-1.998v4.074H39.07V67.085h4.876c2 0 3.423.332 4.27.996.879.664 1.303 1.72 1.303 3.229zm-3.453 1.509c.364-.332.545-.815.545-1.51 0-.693-.181-1.176-.545-1.418-.363-.241-1-.392-1.938-.392h-2.15v3.803h2.09c.969 0 1.635-.151 1.998-.483zm21.712-4.074c1.212 1.116 1.848 2.655 1.848 4.647 0 1.992-.606 3.56-1.787 4.708-1.181 1.146-3.029 1.75-5.451 1.75h-4.392V67.055h4.543c2.271 0 4.028.573 5.24 1.69zm-2.09 7.604c.697-.664 1.06-1.63 1.06-2.867 0-1.267-.363-2.233-1.06-2.897-.696-.663-1.786-1.026-3.24-1.026h-1.605v7.786h1.817c1.302-.03 2.302-.362 3.029-.996zm21.17-9.294v2.535h-6.39v2.625h5.754v2.444h-5.754v2.656h6.602v2.535h-9.449V67.055h9.237zm17.266 0h2.877V79.85h-2.877l-6.118-8.027v8.027H95.13V67.055h2.695l6.3 8.238v-8.238zm-28.68-36.968c.06-1.419-.03-2.746-.212-4.014 3.331-.332 5.542-.241 7.39-.211l-.394-2.414c-1.15-6.307-4.694-12.192-9.782-16.477C67.358 2.716 60.725 0 53.426 0a29.48 29.48 0 00-20.352 8.118 29.154 29.154 0 00-8.57 15.843l-.364 1.9c2.15-.03 4.27-.12 7.45.212-.182 1.328-.273 2.686-.212 4.014-1.424-.06-5.875 0-7.269 0 0 14.726 12.63 28.487 29.105 28.457 12.175 0 23.956-7.514 28.075-19.857 1.212-3.681 1.363-6.458 1.545-8.63-1.212.03-5.997-.03-7.39.03zM53.426 55.406c-12.902 0-23.956-9.597-25.894-22.12 1.514 0 2.847 0 4.21.03 1.241 6.7 5.602 12.523 11.72 15.601 3.331 1.66 5.845 1.962 8.298 2.384-.302-2.716-.605-7.182-3.331-11.739-2.483-4.164-6.42-7.272-11.812-8.69.091 1.056.303 2.414.758 3.56 4.512 1.6 8.934 5.16 10.6 12.856-6.996-2.113-12.72-8.33-13.356-16.84a16.909 16.909 0 01.181-3.892c9.116 2.143 13.114 7.092 13.114 7.092-2.12-6.217-1.878-8.933-1.302-11.438 4.149 2.988 5.694 5.976 6.844 7.847 1.121-1.871 2.15-3.923 5.058-6.519-.182-.875-.515-2.112-1.09-3.289-1.757 1.418-3.12 2.897-3.998 4.014-.697-.845-2.726-3.531-5.785-5.191 0 0-1.483-.935-2.816-1.57-2.968-1.448-5.028-1.87-8.45-2.142-.727.936-2.12 2.686-3.331 5.523.939.12 1.968.302 3.21.633.454-.965.97-1.9 1.605-2.806 2.18.271 4.119.935 5.845 1.78a18.966 18.966 0 00-.696 5.372c-4.846-2.475-11.206-3.048-14.962-3.138 2.969-11.408 13.357-19.495 25.35-19.495 11.933 0 22.35 8.118 25.35 19.495a64.1 64.1 0 00-4.24.271c-.849-2.776-2.272-5.28-4.15-7.695-2.998.211-5.664.754-8.45 2.082-2.09-4.376-5.118-6.97-8.54-9.325-2.968 2.052-5.573 4.225-7.542 7.514.94.483 1.969 1.147 2.726 1.69 1.09-1.78 2.635-3.59 4.846-5.28 6.693 5.1 8.904 12.915 5.512 21.697 0 0 2.938-4.738 11.236-6.7-.151-.875-.394-2.021-.848-3.078-1.908.453-3.816 1.087-5.542 1.962.03-1.84-.212-3.682-.727-5.462 1.696-.845 3.634-1.509 5.815-1.78 2.695 3.862 3.573 7.876 3.331 11.829-8.601 1.448-14.78 7.031-16.657 16.96-.364 1.991-.273 1.478-.454 3.892 2.422-.422 7.904-.965 13.234-5.854 2.938-2.716 5.15-6.186 6.27-10.11-1.12.091-2.514.302-3.635.755-2.09 5.311-6.572 9.506-12.114 11.196 1.302-5.975 4.391-9.928 8.753-12.071 3.846-1.901 8.298-2.022 11.72-1.931-1.908 12.704-12.78 22.12-25.864 22.12z" fill="#151515"/></svg>