<svg width="128" height="50" viewBox="0 0 128 50" fill="none" xmlns="http://www.w3.org/2000/svg"><path d="M62.367 21.355c-1.4 0-2.63-.518-3.648-1.553-1.019-1.035-1.528-2.287-1.528-3.71 0-1.467.51-2.675 1.528-3.71 1.018-1.036 2.248-1.553 3.648-1.553 1.188 0 2.207.345 3.14 1.078.17.13.297.345.34.561a.836.836 0 01-.17.647.941.941 0 01-.552.345.802.802 0 01-.636-.172c-.637-.475-1.316-.734-2.122-.734-.933 0-1.74.345-2.418 1.036-.679.69-1.018 1.51-1.018 2.502 0 .949.34 1.768 1.018 2.459.679.69 1.485 1.035 2.418 1.035.891 0 1.655-.302 2.334-.906.17-.172.382-.259.594-.215.254 0 .424.086.594.302.17.172.254.388.212.604a.79.79 0 01-.255.603c-.975.95-2.121 1.38-3.479 1.38zm10.735 0c-1.443 0-2.63-.518-3.649-1.553-1.018-1.035-1.527-2.287-1.527-3.71 0-1.467.509-2.718 1.527-3.71 1.018-1.036 2.249-1.553 3.649-1.553 1.442 0 2.673.517 3.69 1.553 1.02 1.035 1.528 2.286 1.528 3.71 0 1.467-.509 2.675-1.527 3.71-1.018 1.035-2.249 1.553-3.691 1.553zm0-8.8c-.976 0-1.782.344-2.46 1.035-.68.69-1.02 1.51-1.02 2.502 0 .992.34 1.812 1.02 2.502.678.69 1.484 1.035 2.46 1.035s1.782-.345 2.46-1.035c.68-.69 1.019-1.51 1.019-2.502 0-.992-.34-1.812-1.019-2.502-.678-.69-1.484-1.036-2.46-1.036zm14.086-1.726c.255 0 .424.086.594.258a.86.86 0 01.255.604.79.79 0 01-.255.604.83.83 0 01-.594.26h-4.37v2.674h3.14c.254 0 .424.086.594.259.17.172.254.388.254.604a.79.79 0 01-.254.604.83.83 0 01-.594.259h-3.14v3.537a.79.79 0 01-.254.604.831.831 0 01-.594.259.831.831 0 01-.594-.259.859.859 0 01-.255-.604v-8.8c0-.26.085-.432.255-.604a.83.83 0 01.594-.26h5.218zm9.969 0c.254 0 .424.086.594.258.17.173.254.389.254.604a.79.79 0 01-.254.604.83.83 0 01-.594.26h-4.37v2.674h3.14a.76.76 0 01.593.259c.17.172.255.388.255.604a.79.79 0 01-.255.604.83.83 0 01-.594.259h-3.14v3.537a.79.79 0 01-.254.604.831.831 0 01-.594.259.765.765 0 01-.594-.259.859.859 0 01-.254-.604v-8.8a.79.79 0 01.254-.604.83.83 0 01.594-.26h5.219zm9.929 8.801c.255 0 .425.086.594.258.17.173.255.388.255.604a.789.789 0 01-.255.604.829.829 0 01-.594.259h-5.218a.764.764 0 01-.594-.259.857.857 0 01-.254-.604v-8.8c0-.26.084-.432.254-.604a.832.832 0 01.594-.26h5.218c.255 0 .425.087.594.26.17.172.255.388.255.603a.789.789 0 01-.255.604.828.828 0 01-.594.26h-4.369v2.674h3.139c.255 0 .424.086.594.259.17.172.255.388.255.604a.789.789 0 01-.255.604.832.832 0 01-.594.259h-3.139v2.674h4.369zm10.137 0c.255 0 .424.086.594.258.17.173.255.388.255.604a.789.789 0 01-.255.604.832.832 0 01-.594.259h-5.218a.764.764 0 01-.594-.259.858.858 0 01-.255-.604v-8.8c0-.26.085-.432.255-.604a.832.832 0 01.594-.26h5.218c.255 0 .424.087.594.26.17.172.255.388.255.603a.789.789 0 01-.255.604.832.832 0 01-.594.26h-4.37v2.674h3.14c.254 0 .424.086.594.259.17.172.254.388.254.604a.788.788 0 01-.254.604.832.832 0 01-.594.259h-3.14v2.674h4.37zm-54.856 19.8c-1.4 0-2.63-.517-3.648-1.553-1.019-1.035-1.528-2.286-1.528-3.71 0-1.466.51-2.674 1.528-3.71 1.018-1.035 2.248-1.553 3.648-1.553 1.188 0 2.207.345 3.14 1.079.17.13.297.345.34.56a.836.836 0 01-.17.648.942.942 0 01-.552.345.802.802 0 01-.636-.173c-.637-.474-1.316-.733-2.122-.733-.933 0-1.74.345-2.418 1.035-.679.69-1.018 1.51-1.018 2.502 0 .95.34 1.77 1.018 2.46.679.69 1.485 1.035 2.418 1.035.891 0 1.655-.302 2.334-.906.17-.173.382-.259.594-.216.254 0 .424.087.594.302.17.173.254.388.212.604a.79.79 0 01-.255.604c-.975.906-2.121 1.38-3.479 1.38zm10.735 0c-1.443 0-2.63-.517-3.649-1.553-1.018-1.035-1.527-2.286-1.527-3.71 0-1.466.509-2.717 1.527-3.71 1.018-1.035 2.249-1.553 3.649-1.553 1.442 0 2.673.518 3.69 1.553 1.02 1.036 1.528 2.287 1.528 3.71 0 1.467-.509 2.675-1.527 3.71-1.018 1.036-2.249 1.554-3.691 1.554zm0-8.843c-.976 0-1.782.345-2.46 1.035-.68.69-1.02 1.51-1.02 2.502 0 .992.34 1.812 1.02 2.502.678.69 1.484 1.036 2.46 1.036s1.782-.345 2.46-1.035c.68-.69 1.019-1.51 1.019-2.503 0-.992-.34-1.812-1.019-2.502-.678-.69-1.484-1.035-2.46-1.035zm15.062 1.337c0 .647-.212 1.25-.594 1.769a3.2 3.2 0 01-1.485 1.121l1.655 3.365c.084.216.127.432.042.647a1.003 1.003 0 01-.424.518 1.22 1.22 0 01-.382.086c-.34 0-.594-.172-.764-.474l-1.909-3.926h-1.485v3.494a.859.859 0 01-.254.604.83.83 0 01-.594.26.83.83 0 01-.594-.26.859.859 0 01-.255-.604v-8.8a.79.79 0 01.255-.604.83.83 0 01.594-.26h2.97c.89 0 1.654.303 2.29.907.637.604.934 1.294.934 2.157zm-3.14 1.337c.425 0 .764-.13 1.061-.388.297-.259.424-.56.424-.906 0-.388-.17-.69-.466-.95a1.535 1.535 0 00-1.061-.387H82.86v2.674h2.163v-.043zm12.641 5.825l-5.218-6.816v6.255a.79.79 0 01-.255.604.831.831 0 01-.593.259.831.831 0 01-.594-.259.859.859 0 01-.255-.604v-8.758c0-.172.042-.345.17-.517a.717.717 0 01.424-.302c.17-.043.34-.087.51 0 .169.043.296.172.423.302l5.176 6.816v-6.299a.79.79 0 01.255-.604.83.83 0 01.594-.258c.254 0 .424.086.594.258.17.173.254.389.254.604v9.189l-.042.043s0 .044-.043.044l-.042.043s0 .043-.042.043l-.043.043-.042.043-.043.043-.042.043-.042.044c-.043.043-.085.043-.128.086-.042 0-.085.043-.127.043 0 0-.042 0 0 0-.042 0-.085.043-.127.043h-.467c-.042 0-.042 0-.042-.043h-.043s-.042 0-.042-.043c0 0-.043 0-.043-.043l-.042-.043s-.043 0-.043-.044c-.042 0-.042-.043-.084-.043.084-.129.084-.129.084-.172 0 0 0 .043 0 0zm10.734-1.425c.255 0 .424.087.594.26.17.172.254.388.254.603a.857.857 0 01-.254.604.832.832 0 01-.594.26h-5.218a.763.763 0 01-.594-.26.858.858 0 01-.255-.604v-8.8c0-.26.085-.432.255-.604a.828.828 0 01.594-.26h5.218c.255 0 .424.087.594.26.17.172.254.388.254.604a.857.857 0 01-.254.604.832.832 0 01-.594.259h-4.37v2.674h3.14c.254 0 .424.086.594.259a.861.861 0 01.254.604.792.792 0 01-.254.604.832.832 0 01-.594.259h-3.14v2.674h4.37zm10.226-5.737c0 .647-.212 1.25-.594 1.769a3.2 3.2 0 01-1.485 1.121l1.655 3.365c.084.216.127.432.042.647a1.004 1.004 0 01-.424.518c-.128.043-.255.086-.382.086-.34 0-.594-.172-.764-.474l-1.909-3.926h-1.485v3.494a.861.861 0 01-.254.604.832.832 0 01-.594.26.828.828 0 01-.594-.26.858.858 0 01-.255-.604v-8.8c0-.26.085-.432.255-.604a.828.828 0 01.594-.26h2.969a3.21 3.21 0 012.291.907c.637.604.934 1.294.934 2.157zm-3.14 1.337c.425 0 .764-.13 1.061-.388.297-.259.424-.56.424-.906 0-.388-.17-.69-.467-.95a1.534 1.534 0 00-1.06-.387h-2.121v2.674h2.163v-.043zm-99.107-8.887c-3.437 0-6.194-2.804-6.194-6.255 0-3.236 5.048-8.973 5.6-9.62l.551-.604.552.604c.594.647 5.6 6.384 5.6 9.62.043 3.451-2.715 6.255-6.11 6.255zm0-14.236c-1.697 1.984-4.667 5.953-4.667 7.98 0 2.632 2.121 4.746 4.667 4.746 2.588 0 4.667-2.157 4.667-4.745 0-2.028-3.013-5.997-4.667-7.981zM34.41 9.059h-1.484v14.538h1.485V9.059z" fill="#151515"/><path d="M33.689 24.331c-3.48 0-6.322-3.58-6.322-8.024 0-4.444 2.843-8.024 6.322-8.024s6.321 3.58 6.321 8.024c0 4.443-2.842 8.024-6.321 8.024zm0-14.538c-2.673 0-4.837 2.933-4.837 6.514 0 3.58 2.164 6.514 4.837 6.514 2.673 0 4.836-2.934 4.836-6.514s-2.163-6.514-4.836-6.514zm-.001 31.967c-3.818 0-6.958-3.192-6.958-7.075h1.485c0 3.063 2.461 5.565 5.473 5.565 3.013 0 5.473-2.502 5.473-5.565h1.485c0 3.883-3.14 7.075-6.958 7.075z" fill="#151515"/><path d="M40.646 34.685h-1.485v-4.702H28.215v4.702H26.73v-6.212h13.916v6.212zm-24.268 7.378l-6.491-6.601a4.718 4.718 0 010-6.514 4.458 4.458 0 016.364 0l.084.086.085-.086a4.458 4.458 0 016.364 0 4.718 4.718 0 010 6.514l-6.406 6.6zm-3.31-12.9a3.06 3.06 0 00-2.163.906 3.109 3.109 0 000 4.358l5.43 5.522 5.431-5.522a3.11 3.11 0 000-4.358 2.986 2.986 0 00-4.285 0l-1.146 1.165-1.145-1.165c-.552-.604-1.358-.906-2.121-.906z" fill="#151515"/><path d="M49.172 50H0V0h49.172v50zm-48.45-.733h47.686V.733H.721v48.534z" fill="#151515"/><path d="M127.998 50H48.449V0h79.549v50zm-78.828-.733h78.065V.733H49.17v48.534z" fill="#151515"/></svg>