<svg width="106" height="96" viewBox="0 0 106 96" fill="none" xmlns="http://www.w3.org/2000/svg"><g clip-path="url(#clip0_889_313)" fill="#151515"><path d="M1.1 84.895c0 .986 0 1.906-.064 2.366-.065.329-.13.591-.324.591-.13 0-.26.066-.39.066s-.194.066-.194.066c0 .066.065.131.195.131.972 0 1.945.066 2.982.066 2.01 0 2.917-1.249 2.917-2.431 0-1.314-1.102-2.103-2.01-2.366.584-.46 1.103-1.051 1.103-1.905 0-.592-.325-1.643-2.334-1.643H.193c-.195 0-.26 0-.26.131 0 .066.065.132.195.132h.454c.389.066.454.263.454.657v4.14H1.1zm1.297-4.468c0-.131 0-.197.13-.197h.389c.908 0 1.361.986 1.361 1.709 0 .525-.194.92-.454 1.182-.194.198-.453.198-.777.198-.26 0-.39 0-.52-.066-.064 0-.064-.066-.064-.132v-2.694h-.065zm2.529 5.783c0 1.117-.843 1.445-1.297 1.445-.26 0-.519 0-.778-.131-.324-.132-.389-.329-.389-1.052v-2.628c0-.066 0-.066.065-.066h.454c.454 0 .648.132.907.263.778.592 1.038 1.512 1.038 2.169zm4.278-1.643c0 1.577.39 2.43.973 2.956.778.723 1.815.789 2.399.789.713 0 1.49-.132 2.269-.789.907-.788 1.037-2.102 1.037-3.35v-3.549c0-.394.13-.591.39-.657h.323c.13 0 .195 0 .195-.132 0-.065-.065-.13-.26-.13h-2.463c-.13 0-.26 0-.26.13 0 .066.065.132.195.132h.389c.389.066.454.263.454.657v3.746c0 1.116 0 2.102-.649 2.76-.453.46-1.037.59-1.49.59-.39 0-.843-.065-1.362-.46-.519-.46-.843-1.117-.843-2.694v-3.942c0-.394.13-.591.39-.657h.323c.13 0 .195 0 .195-.132 0-.065-.065-.13-.26-.13H8.232c-.195 0-.26 0-.26.13 0 .066.065.132.195.132h.454c.389.066.454.263.454.657v3.943h.13zm11.606 3.68c.583 0 1.167-.132 1.75-.46.778-.526 1.038-1.249 1.038-1.906 0-1.051-.454-1.84-1.816-2.825l-.324-.263c-.907-.723-1.167-1.051-1.167-1.577 0-.657.519-1.117 1.297-1.117.713 0 1.037.328 1.167.526.26.262.26.657.26.722 0 .132.064.198.129.198.194 0 .194-1.38.194-1.643 0-.066-.065-.132-.13-.132-.259-.065-.713-.197-1.426-.197-1.49 0-2.528.855-2.528 2.103 0 .92.389 1.643 1.62 2.628l.52.394c.907.723 1.037 1.249 1.037 1.775 0 .591-.454 1.248-1.492 1.248-.648 0-1.296-.328-1.555-1.117-.065-.197-.13-.394-.13-.591 0-.066 0-.197-.13-.197-.194 0-.194 1.577-.194 1.708 0 .263.064.329.194.394.584.263 1.038.329 1.686.329zm6.224-3.352c0 1.051 0 1.971-.065 2.431 0 .329-.13.526-.324.526-.13 0-.26.066-.389.066a.282.282 0 00-.194.065c0 .066.064.132.194.132h3.047c.13 0 .195-.066.195-.132 0-.065-.065-.065-.195-.065-.194 0-.389 0-.583-.066-.324-.066-.39-.263-.454-.526-.065-.46-.065-1.314-.065-2.43v-4.338c0-.394.13-.591.39-.657h.323c.13 0 .195 0 .195-.131 0-.066-.065-.066-.26-.066h-2.723c-.194 0-.259 0-.259.066s.065.131.195.131.259 0 .389.066c.259.066.324.263.389.591v4.337h.194zm6.286-2.956c.26.197 1.427 1.577 2.594 2.76 1.102 1.117 2.529 2.562 3.242 3.22.13.13.259.262.389.262s.13-.131.13-.328l.129-6.966c0-.591.13-.854.389-.92h.324c.13 0 .195-.065.195-.13 0-.067-.13-.132-.26-.132h-2.398c-.195 0-.26 0-.26.131 0 .066.065.132.195.132s.389 0 .583.065c.26.132.39.329.39.986l.129 4.928h-.065c-.195-.197-1.686-1.774-2.399-2.497-1.62-1.577-3.241-3.417-3.371-3.548-.195-.197-.26-.329-.39-.329-.129 0-.129.132-.129.395l-.13 6.505c0 .985-.064 1.248-.324 1.38-.13.065-.324.065-.518.065-.13 0-.195 0-.195.066 0 .131.13.131.26.131h2.528c.13 0 .26 0 .26-.131 0-.066-.065-.066-.195-.066-.195 0-.39 0-.584-.066-.194-.065-.389-.394-.389-1.248l-.13-4.665zm10.7 2.956c0 .986 0 1.905-.065 2.365-.065.329-.13.592-.324.592-.13 0-.26.065-.389.065a.282.282 0 00-.194.066c0 .066.064.132.194.132h1.426c.325 0 .649 0 1.103.065.453 0 1.037.066 1.88.066.259 0 .453.066.583-.263.13-.394.195-1.314.195-1.445l-.065-.066c-.065 0-.13.066-.13.197-.065.46-.194.657-.519.788-.259.132-.713.132-1.037.132-1.102 0-1.296-.197-1.296-.92v-2.563c0-.065 0-.131.064-.131h1.556c.39.066.584.197.584.46.065.131.065.263.065.394 0 .066 0 .132.13.132.129 0 .129-.132.129-.198 0-.525.13-1.117.13-1.577 0-.065-.065-.065-.065-.065-.065 0-.13.065-.195.131-.13.132-.259.132-.518.197h-1.75c-.066 0-.066-.065-.066-.131v-2.826c0-.065 0-.131.065-.131.195 0 1.362 0 1.556.066.519.065.648.197.713.394.065.131.065.329.065.394 0 .132 0 .132.13.132.065 0 .13-.066.13-.132.064-.263.13-1.183.13-1.445 0-.066 0-.132-.066-.132-.064 0-.13.066-.194.066-.065 0-.26.066-.454.066h-4.344c-.194 0-.259 0-.259.131 0 .066.065.131.194.131h.454c.39.066.454.263.454.657v4.206zm8.75 3.352c.584 0 1.168-.132 1.751-.46.778-.526 1.038-1.249 1.038-1.906 0-1.051-.454-1.84-1.816-2.825l-.324-.263c-.908-.723-1.167-1.051-1.167-1.577 0-.657.519-1.117 1.297-1.117.713 0 1.037.328 1.167.526.259.262.259.657.259.722 0 .132.065.198.13.198.194 0 .194-1.38.194-1.643 0-.066-.065-.132-.13-.132-.259-.065-.713-.197-1.426-.197-1.49 0-2.528.855-2.528 2.103 0 .92.389 1.643 1.62 2.628l.52.394c.907.723 1.037 1.249 1.037 1.775 0 .591-.454 1.248-1.492 1.248-.648 0-1.296-.328-1.556-1.117-.064-.197-.13-.394-.13-.591 0-.066 0-.197-.129-.197-.194 0-.194 1.577-.194 1.708 0 .263.065.329.194.394.519.263 1.037.329 1.686.329zm7.196 0c.584 0 1.167-.132 1.75-.46.779-.526 1.038-1.249 1.038-1.906 0-1.051-.454-1.84-1.816-2.825l-.324-.263c-.907-.723-1.167-1.051-1.167-1.577 0-.657.52-1.117 1.297-1.117.713 0 1.037.328 1.167.526.26.262.26.657.26.722 0 .132.064.198.129.198.195 0 .195-1.38.195-1.643 0-.066-.065-.132-.13-.132-.26-.065-.713-.197-1.427-.197-1.49 0-2.528.855-2.528 2.103 0 .92.39 1.643 1.62 2.628l.52.394c.907.723 1.037 1.249 1.037 1.775 0 .591-.454 1.248-1.491 1.248-.649 0-1.297-.328-1.556-1.117-.065-.197-.13-.394-.13-.591 0-.066 0-.197-.13-.197-.194 0-.194 1.577-.194 1.708 0 .263.065.329.194.394.584.263 1.038.329 1.686.329zm9.988-6.308c.259.197 1.426 1.577 2.593 2.76 1.102 1.117 2.528 2.562 3.241 3.22.13.13.26.262.39.262s.13-.131.13-.328l.129-6.966c0-.591.13-.854.389-.92h.324c.13 0 .194-.065.194-.13 0-.067-.13-.132-.259-.132h-2.399c-.194 0-.259 0-.259.131 0 .066.065.132.194.132.13 0 .39 0 .584.065.26.132.389.329.389.986l.13 4.928h-.065c-.195-.197-1.686-1.774-2.399-2.497-1.62-1.577-3.242-3.417-3.371-3.548-.195-.197-.26-.329-.39-.329-.129 0-.129.132-.129.395l-.13 6.505c0 .985-.064 1.248-.324 1.38-.13.065-.324.065-.518.065-.13 0-.195 0-.195.066 0 .131.13.131.26.131h2.528c.13 0 .26 0 .26-.131 0-.066-.066-.066-.195-.066-.195 0-.39 0-.584-.066-.194-.065-.389-.394-.389-1.248l-.13-4.665zm13.55 3.284c.064 0 .064 0 .13.066l.842 2.366c.065.131 0 .262-.13.262s-.13.066-.13.132c0 .131 2.918.197 2.918 0 0-.066-.064-.066-.13-.066-.129 0-.324 0-.453-.066-.26-.065-.519-.197-.973-1.182-.713-1.643-2.463-6.177-2.723-6.768-.13-.263-.194-.329-.259-.329-.13 0-.194.132-.324.46l-2.723 6.965c-.195.526-.454.92-.908.986h-.324c-.065 0-.13 0-.13.066 0 .065.065.131.195.131h2.464c.13 0 .194 0 .194-.131 0-.066-.065-.066-.194-.066h-.195c-.324 0-.454-.132-.454-.329 0-.131.065-.394.195-.657l.583-1.577c0-.066.065-.066.13-.066h2.399v-.197zm-2.205-.591c-.064 0-.064-.066-.064-.066l.972-2.694c0-.065 0-.131.065-.131s.065.066.065.131l.972 2.76c0 .066 0 .066-.065.066H81.3v-.066zm7.388 2.366c-.064.394-.13.788-.453.854h-.325c-.13 0-.194 0-.194.066 0 .131.065.131.194.131h2.205c.194 0 .259 0 .259-.131 0-.066-.065-.066-.195-.066s-.259 0-.453-.066c-.195-.065-.325-.131-.325-.328v-.526l.584-4.402h.065c.389.854 1.037 2.234 1.102 2.43.13.33.972 1.972 1.232 2.498.194.328.26.526.389.526.13 0 .13-.132.389-.592l2.398-4.994h.065l.649 4.863c.065.328 0 .46-.065.46-.065.065-.13.065-.13.131s.065.132.324.132c.454.065 1.945.065 2.205.065.13 0 .259-.066.259-.131 0-.066-.065-.066-.195-.066s-.389 0-.648-.131c-.324-.132-.454-.395-.519-1.117l-.972-6.834c-.065-.263-.13-.329-.194-.329-.13 0-.13.066-.26.263l-2.982 6.308-2.982-6.242c-.13-.263-.195-.329-.325-.329-.064 0-.13.132-.194.263l-.908 7.294zm12.902-2.103c0 .986 0 1.906-.065 2.366-.065.328-.13.59-.324.59-.13 0-.259.067-.389.067s-.195.065-.195.065c0 .066.065.132.195.132h1.426c.324 0 .648 0 1.102.066.454 0 1.038.065 1.88.065.389 0 .519 0 .584-.263.065-.197.13-.985.13-1.248 0-.132 0-.197-.065-.197s-.13.066-.13.197c-.065.46-.194.657-.519.788-.259.132-.713.132-1.037.132-1.102 0-1.297-.197-1.297-.92v-2.563c0-.065 0-.131.065-.131h1.556c.389.066.584.197.584.46.065.131.065.263.065.394 0 .066 0 .132.129.132.13 0 .13-.132.13-.198 0-.525.13-1.117.13-1.577 0-.065-.065-.065-.065-.065-.065 0-.13.065-.195.131-.129.132-.259.132-.518.197h-1.751c-.065 0-.065-.066-.065-.131v-2.826c0-.065 0-.131.065-.131.195 0 1.362 0 1.556.066.519.065.648.197.713.394.065.131.065.328.065.394 0 .131 0 .131.13.131.065 0 .129-.065.129-.13.065-.264.13-1.184.13-1.447 0-.065 0-.13-.065-.13s-.129.065-.194.065-.26.066-.454.066h-4.344c-.194 0-.259 0-.259.13 0 .067.065.132.194.132h.454c.389.066.454.263.454.657v4.14h.065zM27.552 95.08c.194.394.453.525.713.525.13 0 .194 0 .324-.066.065-.065.194-.13.194-.197.065-.065.065-.197.065-.263 0-.13-.065-.197-.13-.328-.13-.131-.324-.329-.583-.526a4.872 4.872 0 01-.519-.46.752.752 0 01-.194-.525c0-.132.065-.263.13-.395.064-.131.194-.197.324-.262.13-.066.259-.132.389-.132s.324.066.453.132c.065 0 .13.065.195.131v.526c-.13-.197-.26-.263-.324-.329-.065-.066-.195-.066-.26-.066a.49.49 0 00-.324.132.506.506 0 00-.13.328c0 .066 0 .132.066.197 0 .066.064.132.194.198.065.065.194.131.454.328s.454.394.583.592c.13.197.13.328.13.525 0 .263-.065.46-.26.657a.827.827 0 01-.648.263c-.194 0-.389-.066-.518-.131l-.195-.197v-.657h-.13zm6.678-2.563h.325v3.023h1.296v.328h-1.62v-3.35zm7.974-.066c.518 0 .907.197 1.231.526.325.328.519.788.519 1.248 0 .46-.194.92-.519 1.249a1.76 1.76 0 01-1.231.525c-.52 0-.908-.197-1.232-.525a1.693 1.693 0 01-.519-1.249c0-.328.065-.591.26-.92.13-.262.388-.46.648-.657a1.78 1.78 0 01.843-.197zm0 .329c-.26 0-.454.065-.714.197a1.987 1.987 0 00-.518.525c-.13.198-.195.46-.195.723 0 .395.13.723.39.986.259.263.583.394.972.394.26 0 .518-.066.713-.197a1.99 1.99 0 00.519-.526c.13-.197.194-.46.194-.722 0-.263-.065-.526-.194-.723a1.988 1.988 0 00-.52-.526 1.609 1.609 0 00-.647-.131zm9.661.591a1.532 1.532 0 00-.583-.394c-.195-.065-.454-.131-.649-.131-.26 0-.518.066-.713.197-.26.131-.389.328-.519.526-.13.197-.194.46-.194.722 0 .263.065.46.194.723.13.197.325.395.584.526.26.131.519.197.778.197.324 0 .648-.066.843-.263.26-.197.389-.46.389-.723h-1.038v-.328h1.427c0 .525-.13.92-.454 1.248-.324.329-.713.46-1.232.46-.583 0-1.102-.197-1.426-.657a1.8 1.8 0 01-.39-1.117c0-.328.066-.591.26-.854.13-.263.39-.46.648-.657.26-.132.584-.263.908-.263.26 0 .519.066.778.131.13.066.324.132.454.263v.394h-.065zm6.678-.854l1.556 3.351h-.324l-.52-1.117H57.83l-.52 1.117h-.388l1.556-3.35h.065zm0 .723l-.584 1.248h1.167l-.583-1.248zm6.351 2.628v-3.35h.065l2.205 2.562v-2.563h.324v3.351h-.065l-2.14-2.497v2.497h-.389z"/><path fill-rule="evenodd" clip-rule="evenodd" d="M55.494 6.637c14.976 1.314 26.71 14.061 26.71 29.568a29.81 29.81 0 01-11.928 23.918v-13.47l-5.057 3.351v13.142l-2.334.985V24.443l-5.057 3.352v42.25c-.778.132-1.556.263-2.334.329V6.637zM45.38 2.76L50.437 0v65.774c-.778-.066-1.556-.197-2.334-.328v-48.23l-5.057 3.35v43.565a17.699 17.699 0 01-2.334-.985v-28.65l-5.056 3.352v22.275c-7.261-5.388-11.93-14.127-11.93-23.918 0-13.47 8.818-24.772 20.941-28.451l.778-.198V2.76h-.065z"/></g><defs><clipPath id="clip0_889_313"><path fill="#fff" d="M0 0h106v96H0z"/></clipPath></defs></svg>