<svg width="81" height="93" viewBox="0 0 81 93" fill="none" xmlns="http://www.w3.org/2000/svg"><g clip-path="url(#clip0_889_286)" fill="#151515"><path d="M35.634 18.537a7.167 7.167 0 00.254-5.415 7.285 7.285 0 00-3.612-4.08 7.167 7.167 0 00-.254 5.415 7.291 7.291 0 003.612 4.08zm-13.951 3.374a7.105 7.105 0 005.024 1.688 6.965 6.965 0 00-2.43-4.672 7.104 7.104 0 00-5.023-1.688 7.018 7.018 0 002.429 4.672zm1.223 8.451a7.2 7.2 0 00-5.367-.088 7.076 7.076 0 003.803 3.753 7.2 7.2 0 005.367.088 7.076 7.076 0 00-3.803-3.753zm-9.783 1.12a6.23 6.23 0 00-4.603.592 6.18 6.18 0 003.726 2.733 6.229 6.229 0 004.604-.592 6.228 6.228 0 00-3.727-2.733zm12.77 14.861a7.99 7.99 0 005.901-.73 7.867 7.867 0 00-4.756-3.527 7.99 7.99 0 00-5.901.73 7.914 7.914 0 004.756 3.527zm-6.054-.428a6.438 6.438 0 00-4.26-2.166A6.406 6.406 0 0011 45.12a6.439 6.439 0 004.26 2.166 6.406 6.406 0 004.579-1.372zm-.752 3.979a7.134 7.134 0 00-3.001 4.496 7.24 7.24 0 005.316-1.171 7.133 7.133 0 003.001-4.496 7.36 7.36 0 00-5.316 1.171zM42.998 21.37a8.72 8.72 0 00-2.505-6.12A8.762 8.762 0 0038 21.37c0 2.38.954 4.534 2.505 6.121a8.74 8.74 0 002.493-6.12zm-.687-12.832a6.319 6.319 0 00-1.806-4.433 6.341 6.341 0 000 8.866 6.319 6.319 0 001.806-4.433zm6.651 5.919a7.167 7.167 0 00-.254-5.416c-1.628.819-2.963 2.23-3.612 4.08a7.167 7.167 0 00.254 5.416 7.201 7.201 0 003.612-4.08zm7.76 4.47a6.964 6.964 0 00-2.429 4.672 7.104 7.104 0 005.023-1.688 6.964 6.964 0 002.43-4.672 7.085 7.085 0 00-5.024 1.688zm6.728 11.347a7.2 7.2 0 00-5.366.088 7.119 7.119 0 00-3.803 3.753 7.262 7.262 0 005.367-.088 7.16 7.16 0 003.803-3.753zm5.29 4.546a6.179 6.179 0 003.727-2.733 6.229 6.229 0 00-4.604-.592 6.18 6.18 0 00-3.726 2.733 6.298 6.298 0 004.604.592zM55.108 46.343a7.914 7.914 0 004.757-3.526 7.99 7.99 0 00-5.901-.73 7.914 7.914 0 00-4.757 3.525 7.99 7.99 0 005.901.73zm10.631.944a6.385 6.385 0 004.26-2.166 6.406 6.406 0 00-4.578-1.372 6.384 6.384 0 00-4.26 2.166 6.406 6.406 0 004.578 1.372zm-3.841 2.607a7.36 7.36 0 00-5.316-1.17 7.216 7.216 0 003.001 4.495A7.36 7.36 0 0064.9 54.39a7.134 7.134 0 00-3.002-4.496z"/><path d="M40.493 0C20.093 0 3.484 16.434 3.484 36.646c0 8.324 2.9 16.472 8.152 22.944 5.177 6.373 12.439 10.906 20.438 12.745l.496.113.42-.29c3.484-2.367 6.079-5.68 7.503-9.596 1.425 3.917 4.006 7.229 7.491 9.596l.42.29.496-.113c8-1.839 15.261-6.372 20.437-12.744 5.253-6.473 8.153-14.621 8.153-22.945C77.502 16.434 60.906 0 40.493 0zm3.816 61.731a23.137 23.137 0 008.203 7.115 34.419 34.419 0 01-3.625 1.109c-4.222-3.048-6.893-7.871-7.198-13.022a22.286 22.286 0 002.62 4.798zm11.878-34.97l-.063.037c-6.232 2.884-11.218 7.833-14.105 13.991a36.664 36.664 0 016.22-15.867 36.39 36.39 0 012.887-3.64l.114-.138c3.675-4.055 8.114-7.19 13.176-9.332a35.166 35.166 0 012.67 2.821A22.352 22.352 0 0156.187 26.76zM43.902 50.094c.7-3.614 2.798-6.7 5.888-8.701 2.785-1.801 5.965-2.784 9.195-2.821h.216c5.889 0 11.332 2.896 14.6 7.744-1.259 4.295-3.37 8.287-6.257 11.838a34.803 34.803 0 01-12.209 9.533 20.805 20.805 0 01-9.182-7.229l-.064-.088c-2.111-3.022-2.887-6.662-2.187-10.276zm15.045-13.852c-5.138.063-10.035 2.153-13.786 5.893a19.37 19.37 0 00-2.2 2.595c1.678-5.1 4.96-9.684 9.31-12.946 4.666-3.5 10.237-5.352 16.1-5.352 1.806 0 3.624.176 5.392.541a34.11 34.11 0 011.4 9.684c0 2.28-.217 4.534-.662 6.738-3.777-4.546-9.348-7.128-15.338-7.128-.063-.025-.14-.025-.216-.025zm4.35-11.687a24.24 24.24 0 005.443-7.782 33.934 33.934 0 014.158 7.694 29.246 29.246 0 00-9.602.088zm-24 32.377c-.304 5.15-2.975 9.974-7.197 13.022a35.16 35.16 0 01-3.625-1.109 23.179 23.179 0 008.216-7.115 22.799 22.799 0 002.607-4.798zm-22.726-45.12c5.138 2.165 9.627 5.351 13.328 9.495l.038.037c.013.026.039.038.051.063l.038.038a38.522 38.522 0 012.697 3.425c3.294 4.735 5.456 10.213 6.244 15.905a29.119 29.119 0 00-13.392-13.65v-.013l-.089-.038c-5.316-2.456-9.538-6.989-11.598-12.442a43.552 43.552 0 012.683-2.82zM38.026 44.73a21.465 21.465 0 00-2.2-2.595c-3.74-3.74-8.636-5.83-13.786-5.893h-.255c-5.977 0-11.535 2.594-15.312 7.14a34.883 34.883 0 01-.661-6.737c0-3.287.47-6.536 1.399-9.684a27.574 27.574 0 015.392-.542c5.863 0 11.42 1.851 16.1 5.352 4.363 3.275 7.644 7.846 9.323 12.959zm-16.012-6.17c3.23.037 6.41 1.02 9.195 2.82a13.377 13.377 0 015.889 8.702c.712 3.614-.064 7.266-2.188 10.263l-.063.1a20.648 20.648 0 01-9.183 7.23 35.032 35.032 0 01-12.209-9.534c-2.887-3.55-4.998-7.543-6.257-11.837a17.502 17.502 0 0114.816-7.745zM32.901 3.147a35.095 35.095 0 0115.185 0 11.577 11.577 0 014.184 8.904c0 2.783-.992 5.478-2.785 7.555a42.27 42.27 0 00-3.18 3.992 38.857 38.857 0 00-5.812 12.757 38.715 38.715 0 00-5.837-12.794 37.811 37.811 0 00-3.014-3.803 11.562 11.562 0 01-2.913-7.707c0-3.438 1.514-6.687 4.172-8.904zm-14.397 6.977a34.719 34.719 0 0110.2-5.768 13.839 13.839 0 00-2.328 7.695c0 1.032.115 2.065.344 3.085a39.516 39.516 0 00-8.216-5.012zM8.088 24.455a33.714 33.714 0 014.172-7.694 24.659 24.659 0 005.494 7.796 29.156 29.156 0 00-5.126-.454c-1.513 0-3.04.126-4.54.353zm46.179-9.318c.229-1.02.343-2.053.343-3.085 0-2.758-.801-5.415-2.327-7.695a34.719 34.719 0 0110.2 5.768 39.85 39.85 0 00-8.216 5.012zM8.966 90.242H3.294l-1.12 2.607H0l5.113-11.246h2.073l5.125 11.246h-2.213l-1.132-2.607zm-.7-1.637L6.13 83.693l-2.124 4.912h4.26zm7.757-1.385c0-3.35 2.595-5.78 6.08-5.78 1.844 0 3.433.655 4.489 1.876l-1.36 1.272c-.828-.881-1.845-1.322-3.028-1.322-2.352 0-4.057 1.637-4.057 3.954s1.705 3.954 4.057 3.954c1.183 0 2.2-.428 3.027-1.335l1.361 1.285C25.536 92.346 23.947 93 22.09 93c-3.472 0-6.067-2.418-6.067-5.78zm22.959 3.022H33.31l-1.12 2.607h-2.174l5.112-11.246h2.073l5.126 11.246h-2.2l-1.145-2.607zm-.7-1.637l-2.136-4.912-2.124 4.912h4.26zm7.758-1.385c0-3.35 2.593-5.78 6.078-5.78 1.844 0 3.434.655 4.49 1.876l-1.361 1.272c-.827-.881-1.844-1.322-3.027-1.322-2.353 0-4.057 1.637-4.057 3.954s1.704 3.954 4.057 3.954c1.183 0 2.2-.428 3.027-1.335l1.36 1.285C55.553 92.346 53.963 93 52.106 93c-3.471 0-6.066-2.418-6.066-5.78zm15.831-5.617h2.111v11.246h-2.11V81.603zm15.783 8.639H71.98l-1.119 2.607h-2.174L73.8 81.603h2.073l5.125 11.246h-2.2l-1.144-2.607zm-.7-1.637l-2.136-4.912-2.124 4.912h4.26z"/></g><defs><clipPath id="clip0_889_286"><path fill="#fff" d="M0 0h81v93H0z"/></clipPath></defs></svg>