<svg width="109" height="78" viewBox="0 0 109 78" fill="none" xmlns="http://www.w3.org/2000/svg"><g clip-path="url(#clip0_889_274)" fill="#151515"><path d="M79.981 15.605c-.496.395 0 1.172.566.873l10.967-7.047c.078-.05.175.019.16.106L90.6 15.739a2.857 2.857 0 01-1.383 1.984l-12.218 7.061c-.538.34-.124 1.167.465.937l10.126-4.984c.151-.074.312.096.225.243L78.91 36.062c-.045.046-.087.092-.133.138l-8.057 5.173-17.288-11.765a.393.393 0 00-.372-.032l-4.472 2.085c-.97.45-2.11.207-2.804-.597l-2.593-2.982a.86.86 0 01.373-1.378l3.199-1.08v.01l7.598-2.568a.813.813 0 01.551 0l7.322 2.462a.377.377 0 00.433-.151l4.196-6.542.726-1.116c.033-.033.06-.065.092-.092L92.686.069a.374.374 0 01.584.372l-1.04 5.94a.72.72 0 01-.284.46L79.98 15.604z" fill-opacity=".6"/><path d="M70.722 41.368L55.618 51.06a1.793 1.793 0 01-1.953 0L30.499 36.19a2.592 2.592 0 00-.11-.115L21.466 20.97c-.088-.143.069-.317.23-.244l10.125 4.99c.589.229 1.002-.598.464-.938L20.07 17.723a2.848 2.848 0 01-1.383-1.985l-1.08-6.201c-.014-.097.087-.157.156-.11l10.971 7.051c.566.299 1.062-.482.566-.873l-11.96-8.77a.72.72 0 01-.285-.464L16.015.436c-.064-.33.308-.56.584-.372l25.004 17.553c.023.023.06.065.088.087l5.079 7.907-3.2 1.08a.862.862 0 00-.371 1.377l2.592 2.982a2.374 2.374 0 002.804.597l4.472-2.086a.383.383 0 01.372.033l17.283 11.774zM1.917 75.694c.004.248.018.5.041.758.023.262.064.505.124.735.06.23.138.395.248.491v.129H0v-.129c.106-.096.188-.261.248-.491.06-.23.101-.478.129-.735a8.86 8.86 0 00.05-.758c.005-.244.01-.432.01-.556v-4.364c0-.124-.005-.262-.01-.404a3.018 3.018 0 00-.05-.442 2.338 2.338 0 00-.129-.431A1.106 1.106 0 000 69.129V69h5.667c.915 0 1.628.221 2.142.667.51.44.768 1.07.768 1.879 0 .376-.06.72-.175 1.042a2.13 2.13 0 01-.528.823 2.43 2.43 0 01-.883.542 3.6 3.6 0 01-1.236.193H2.689l-.041-.088.735-1.212h.129c.105.069.23.11.367.124.138.013.28.023.428.023h1.26c.51 0 .914-.124 1.208-.368.294-.243.441-.597.441-1.047 0-.262-.05-.478-.142-.657a1.305 1.305 0 00-.368-.432 1.476 1.476 0 00-.515-.239 2.558 2.558 0 00-.593-.073h-3.69v4.97c0 .115.004.303.009.547zm11.349 1.99c.142-.142.29-.335.432-.57.147-.234.28-.482.413-.735.13-.257.253-.505.364-.753l.28-.616 1.921-4.263a4.64 4.64 0 00.175-.39c.06-.147.106-.29.138-.441.032-.147.041-.29.027-.427a.627.627 0 00-.165-.363v-.129h2.923v.129a.644.644 0 00-.1.363c0 .133.017.275.059.427.037.151.087.299.142.44.06.143.115.281.175.405l2.055 4.539.243.514.35.68c.124.235.257.464.39.68.133.216.262.386.377.515v.128h-2.372v-.128a.654.654 0 00.115-.34 1.456 1.456 0 00-.036-.414 4.664 4.664 0 00-.295-.854l-.202-.478h-4.66l-.19.478-.16.4c-.06.147-.101.298-.129.44a1.446 1.446 0 00-.023.419c.014.133.06.252.138.349v.128h-2.385v-.133zm5.033-7.272l-1.738 4.033h3.558l-1.765-4.033h-.055zm14.665 2.457c.106.078.23.12.368.129.138.009.285.013.441.013h1.563c.529 0 .924-.142 1.177-.427.257-.285.381-.625.381-1.02 0-.491-.147-.85-.441-1.07-.294-.22-.653-.33-1.076-.33h-3.962v4.97c0 .124.005.312.01.556.004.248.023.5.06.758.032.262.082.505.151.735.069.23.165.395.29.491v.129h-2.418v-.129c.105-.096.188-.262.248-.491.06-.23.101-.478.129-.735.027-.262.046-.515.05-.758.005-.244.01-.432.01-.556v-4.365c0-.124-.005-.261-.01-.413a2.997 2.997 0 00-.05-.45 2.333 2.333 0 00-.129-.432.967.967 0 00-.248-.354v-.128h5.74c.456 0 .87.06 1.246.179.377.12.704.294.975.519.271.225.487.5.634.818.147.317.225.67.225 1.056 0 .657-.211 1.209-.63 1.654-.418.446-.992.721-1.714.818l-.014.06.708 1.024c.405.588.777 1.08 1.113 1.48.335.399.69.743 1.057 1.033v.115a1.935 1.935 0 01-.956.243 1.83 1.83 0 01-.685-.124 2.191 2.191 0 01-.556-.317 2.781 2.781 0 01-.442-.427 5.264 5.264 0 01-.34-.45l-1.737-2.5H32.15l-.042-.087.736-1.226h.12v.009zm14.376 2.826c.005.248.023.5.06.758.032.262.083.505.152.735.069.23.165.395.29.492v.128h-2.533v-.128c.133-.097.239-.262.317-.492.078-.23.133-.478.165-.735a7.56 7.56 0 00.06-.758c.005-.243.01-.432.01-.556v-4.364c0-.124-.005-.262-.01-.413a2.16 2.16 0 00-.06-.45 1.55 1.55 0 00-.165-.433 1.108 1.108 0 00-.317-.353v-.129h2.532v.129a1.04 1.04 0 00-.29.353 1.896 1.896 0 00-.151.432 3.02 3.02 0 00-.06.45c-.004.147-.009.285-.009.414v4.364c.005.124.005.313.01.556zm6.605 1.989c.143-.142.29-.335.432-.57.143-.234.28-.482.414-.735.129-.257.253-.505.363-.753l.28-.616 1.922-4.263a4.64 4.64 0 00.175-.39c.06-.147.105-.29.137-.441.033-.147.042-.29.028-.427a.628.628 0 00-.165-.363v-.129h2.923v.129a.645.645 0 00-.101.363c0 .133.018.275.06.427.036.151.087.299.142.44.06.143.115.281.175.405l2.054 4.539.244.514.35.68c.123.235.257.464.39.68.133.216.262.386.377.515v.128h-2.372v-.128a.653.653 0 00.115-.34 1.456 1.456 0 00-.037-.414 4.273 4.273 0 00-.129-.44 7.727 7.727 0 00-.165-.414l-.202-.478h-4.656l-.189.478-.16.4a2.39 2.39 0 00-.13.44 1.45 1.45 0 00-.022.419c.013.133.06.252.137.349v.128H53.95v-.133h-.005zm5.033-7.272l-1.737 4.033h3.558l-1.766-4.033h-.055zm10.325-1.562l1.026.146h5.957l1.3-.147.101.074-1.01 1.778h-.13a.595.595 0 00-.376-.414 2.006 2.006 0 00-.754-.124h-1.839v4.97a13.687 13.687 0 00.06 1.305c.027.262.073.506.129.735.06.23.142.4.262.506v.128H71.67v-.128c.105-.106.188-.276.248-.506.06-.23.101-.478.129-.735a8.79 8.79 0 00.05-.753c.005-.239.01-.423.01-.551v-4.971h-1.692a4.79 4.79 0 00-1.085.124c-.359.083-.643.22-.855.413l-.101-.073.795-1.778h.133zm16.347.276a.947.947 0 00-.239.353 2.35 2.35 0 00-.115.432 3.722 3.722 0 00-.041.45c-.005.147-.01.285-.01.414v3.817c0 .308.06.593.175.855.115.262.29.487.52.684.23.198.528.354.892.464.363.11.786.166 1.277.166.492 0 .915-.055 1.273-.166a2.57 2.57 0 00.897-.464c.239-.197.418-.427.533-.684.115-.262.175-.547.175-.855v-3.817c0-.124 0-.262-.01-.413a2.997 2.997 0 00-.05-.45 2.334 2.334 0 00-.129-.433 1.014 1.014 0 00-.243-.353v-.129h2.358v.129a.95.95 0 00-.262.353c-.06.138-.102.285-.13.432a2.997 2.997 0 00-.05.45c-.004.147-.009.285-.009.414v3.657c0 .597-.106 1.116-.317 1.562-.212.445-.51.808-.896 1.097a4.08 4.08 0 01-1.38.653 6.67 6.67 0 01-1.769.216 6.86 6.86 0 01-1.779-.216 3.862 3.862 0 01-1.36-.653 2.926 2.926 0 01-.873-1.097c-.207-.441-.313-.965-.313-1.562v-3.657c0-.124 0-.262-.01-.413a3.01 3.01 0 00-.05-.45 1.834 1.834 0 00-.142-.433 1.1 1.1 0 00-.276-.353v-.129h2.358v.129h-.005zm17.462 3.743c.106.078.23.12.368.129.138.009.285.013.441.013h1.563c.528 0 .924-.142 1.177-.427.257-.285.381-.625.381-1.02 0-.491-.147-.85-.441-1.07-.294-.22-.653-.33-1.076-.33h-3.962v4.97c0 .124.005.312.009.556.005.248.023.5.06.758.032.262.083.505.152.735.069.23.165.395.289.491v.129H99.66v-.129c.106-.096.189-.262.248-.491.06-.23.101-.478.129-.735.028-.262.046-.515.051-.758.004-.244.009-.432.009-.556v-4.365c0-.124-.005-.261-.009-.413a2.998 2.998 0 00-.051-.45 2.371 2.371 0 00-.129-.432.968.968 0 00-.248-.354v-.128h5.737c.455 0 .868.06 1.245.179.377.12.703.294.975.519.271.225.487.5.634.818.147.317.225.67.225 1.056 0 .657-.211 1.209-.63 1.654-.418.446-.992.721-1.714.818l-.014.06.708 1.024c.405.588.777 1.08 1.112 1.48.336.399.69.743 1.058 1.033v.115a1.937 1.937 0 01-.957.243c-.248 0-.478-.041-.684-.124a2.196 2.196 0 01-.557-.317 2.814 2.814 0 01-.441-.427 5.304 5.304 0 01-.34-.45l-1.737-2.5h-1.981l-.042-.087.736-1.226h.119v.009z"/></g><defs><clipPath id="clip0_889_274"><path fill="#fff" d="M0 0h109v78H0z"/></clipPath></defs></svg>