<svg width="108" height="74" viewBox="0 0 108 74" fill="none" xmlns="http://www.w3.org/2000/svg"><g clip-path="url(#clip0_889_206)" fill="#151515"><path d="M12.872 69.944v.649h-1.136v3.408h-.811v-3.408H9.789v-.65h3.083zm4.921 3.246h-1.622L15.9 74h-.866l1.514-4.003h.92L18.928 74h-.865l-.27-.811zm-.216-.65l-.595-1.73-.595 1.73h1.19zm6.868-2.272c.324.217.54.595.649.974h-.866c-.054-.162-.216-.325-.378-.433a1.09 1.09 0 00-.595-.162 1.09 1.09 0 00-.595.162c-.162.108-.325.27-.433.433a1.497 1.497 0 00-.162.703c0 .433.108.758.325.974.216.216.54.379.919.379.27 0 .54-.109.757-.27.216-.163.325-.434.379-.704h-1.352v-.595h2.055v.757c-.054.27-.163.487-.325.757s-.378.38-.649.541c-.27.163-.595.217-.92.217a2.07 2.07 0 01-1.027-.27c-.324-.163-.54-.433-.703-.704a2.288 2.288 0 01-.27-1.082c0-.432.108-.757.27-1.082a1.48 1.48 0 01.703-.703c.325-.162.65-.27 1.028-.27.487 0 .865.108 1.19.378zm4.108 3.084h1.352v.595h-2.163V69.89h.811v3.462zm4.653-3.408V74h-.812v-4.057h.812zM39.372 74h-.811l-1.785-2.758v2.759h-.811v-4.057h.811l1.785 2.759v-2.76h.811v4.058zm3.514-3.407v1.028h1.46v.595H42.94v1.082h1.623v.649h-2.434V69.89h2.434v.649h-1.677v.054zm10.547-.325c.325.217.54.595.649.974h-.865c-.054-.162-.217-.325-.379-.433a1.09 1.09 0 00-.595-.162 1.09 1.09 0 00-.595.162c-.162.108-.324.27-.432.433a1.498 1.498 0 00-.163.703c0 .433.109.758.325.974.216.216.54.379.92.379.27 0 .54-.109.756-.27.217-.163.325-.434.379-.704h-1.352v-.595h2.055v.757c-.054.27-.162.487-.325.757-.162.27-.378.38-.648.541-.27.163-.595.217-.92.217-.378 0-.757-.108-1.027-.27-.325-.163-.541-.433-.703-.704a2.287 2.287 0 01-.27-1.082c0-.432.107-.757.27-1.082a1.48 1.48 0 01.703-.703c.324-.162.649-.27 1.027-.27.487 0 .865.108 1.19.378zm6.221-.108c.324.162.54.433.703.757a2.294 2.294 0 010 2.164c-.163.325-.433.541-.703.757-.325.163-.65.27-1.028.27-.379 0-.703-.107-1.027-.27-.325-.162-.541-.432-.704-.757a2.288 2.288 0 01-.27-1.082c0-.432.108-.757.27-1.082.163-.324.433-.54.703-.757.325-.162.65-.27 1.028-.27.379 0 .757.054 1.028.27zm-1.623.65c-.162.107-.324.27-.432.486a1.497 1.497 0 00-.163.703c0 .27.054.487.163.704.108.216.216.378.432.486.162.109.379.163.65.163.215 0 .432-.055.648-.163.216-.108.325-.27.433-.486.108-.217.162-.433.162-.704 0-.27-.054-.486-.162-.703-.108-.216-.217-.379-.433-.487-.162-.108-.379-.162-.649-.162s-.487.054-.649.162zm6.054-.217v1.028h1.406v.595h-1.406v1.082h1.622v.649h-2.434V69.89h2.434v.649h-1.622v.054zM70.9 73.46a1.682 1.682 0 01-.433.433c-.217.108-.433.162-.757.162a1.73 1.73 0 01-.757-.162 1.374 1.374 0 01-.541-.433c-.163-.162-.217-.379-.217-.65h.866c0 .163.108.325.216.433a.61.61 0 00.433.163.77.77 0 00.378-.109c.108-.108.108-.216.108-.324 0-.108-.054-.216-.108-.325-.054-.108-.162-.162-.27-.216a3.674 3.674 0 00-.433-.162c-.27-.108-.433-.162-.595-.27a2.709 2.709 0 01-.432-.38c-.163-.162-.163-.378-.163-.594 0-.325.109-.595.379-.812a1.51 1.51 0 01.973-.324c.433 0 .758.108 1.028.324.27.217.379.487.432.812h-.865c0-.163-.108-.27-.162-.379-.054-.108-.216-.162-.433-.162a.781.781 0 00-.378.108c-.108.054-.162.216-.162.324 0 .109.054.217.108.27.054.055.162.163.27.217.108.054.27.109.433.163.27.108.487.162.649.27.162.108.324.216.432.379.108.162.163.378.163.649 0 .216-.055.379-.163.595zm9.355-3.516V74h-.81v-1.73h-1.731V74h-.812v-4.056h.812v1.623h1.73v-1.623h.811zm3.517.649v1.028h1.406v.595h-1.406v1.082h1.623v.649H82.96V69.89h2.434v.649h-1.623v.054zM90.101 74l-.919-1.568h-.379v1.569h-.81v-4.057h1.514c.486 0 .81.108 1.081.324.27.217.379.541.379.92 0 .325-.108.54-.27.757-.163.217-.433.325-.758.433l1.028 1.623H90.1zm-1.298-2.163h.65c.486 0 .702-.216.702-.595 0-.216-.054-.325-.162-.433-.108-.108-.27-.162-.54-.162h-.65v1.19zm5.516-1.244v1.028h1.406v.595H94.32v1.082h1.623v.649h-2.434V69.89h2.434v.649H94.32v.054zM10.87 60.26c-.54.974-1.298 1.677-2.271 2.218-.974.541-2.11.812-3.407.812H0V50.848h5.192c1.298 0 2.433.27 3.407.812.973.54 1.73 1.244 2.271 2.217.541.92.812 2.002.812 3.192 0 1.19-.27 2.218-.812 3.191zm-3.948-1.136c.541-.486.758-1.19.758-2.055 0-.866-.27-1.569-.758-2.056-.486-.486-1.19-.703-2.109-.703h-.92v5.572h.92c.92-.054 1.623-.27 2.11-.758zm14.115 2.326h-4.164l-.595 1.894h-4.11l4.597-12.496h4.489l4.542 12.442h-4.11l-.649-1.84zm-.92-2.92l-1.135-3.463-1.136 3.462h2.272zm16.332-7.682v3.084h-3.3v9.358h-3.893v-9.304h-3.299v-3.138h10.492zm9.034 10.602h-4.165l-.594 1.894h-4.11l4.542-12.442h4.489l4.543 12.442h-4.11l-.595-1.893zm-.92-2.92l-1.136-3.462-1.135 3.462h2.271zm15.196-.541c.486.54.703 1.244.703 1.947 0 1.028-.325 1.839-1.028 2.434-.703.595-1.676.92-3.028.92h-4.922V50.848h4.868c1.244 0 2.217.27 2.866.812.649.54.973 1.298.973 2.272 0 .81-.216 1.406-.595 1.893a3.135 3.135 0 01-1.622.973c.703.27 1.298.65 1.785 1.19zm-6.328-1.731h2.488c.703 0 1.244-.163 1.623-.487.378-.325.54-.812.54-1.353 0-.595-.162-1.027-.54-1.352-.38-.325-.92-.487-1.677-.487H53.43v3.678zm4.327 4.868c.432-.325.649-.811.649-1.46 0-.596-.217-1.082-.65-1.461-.432-.379-1.027-.541-1.784-.541h-2.542v3.949h2.542c.757.054 1.352-.108 1.785-.487zm11.087 2.218l-3.082-4.977h-1.407v4.977h-2V50.902h4.38c1.406 0 2.488.325 3.245 1.028.757.703 1.082 1.623 1.082 2.759 0 .974-.27 1.785-.812 2.38-.54.65-1.352 1.028-2.38 1.19l3.246 5.03h-2.272v.055zm-4.543-6.383h2.218c1.622 0 2.433-.703 2.433-2.164 0-.703-.216-1.19-.594-1.569-.38-.378-1.028-.595-1.84-.595h-2.217v4.328zm15.956 3.679h-5.246l-.974 2.704h-2.163l4.597-12.225h2.325l4.543 12.225h-2.163l-.92-2.705zm-.595-1.57l-2.055-5.788-2.056 5.788h4.11zm15.247 4.274h-2l-6.057-9.196v9.196h-2.001V50.902h2l6.058 9.196v-9.196h2v12.442zm12.28-2.975a5.047 5.047 0 01-2.218 2.163c-.973.541-2.163.758-3.515.758h-4.164V50.848h4.164c1.352 0 2.542.27 3.515.758a5.046 5.046 0 012.218 2.163c.487.92.757 2.002.757 3.3.054 1.298-.216 2.38-.757 3.3zm-2.434 0c.811-.758 1.19-1.84 1.19-3.246s-.379-2.488-1.19-3.246c-.811-.757-1.947-1.136-3.407-1.136h-2v8.818h2c1.46-.054 2.596-.433 3.407-1.19zm-31.8-48.415v10.71a5.224 5.224 0 00-4.218-2.109c-1.73 0-3.245.811-4.219 2.11v-10.71a4.224 4.224 0 014.219-4.22c1.19 0 2.217.487 2.974 1.244a4.165 4.165 0 011.244 2.975z"/><path d="M64.52 38.352V25.857a4.224 4.224 0 014.218-4.22 4.224 4.224 0 014.218 4.22v12.495a4.224 4.224 0 01-4.218 4.22 4.224 4.224 0 01-4.219-4.22zM58.194 4.22v17.039a5.224 5.224 0 00-4.218-2.11c-1.73 0-3.245.811-4.218 2.11V4.219A4.224 4.224 0 0153.976 0c1.19 0 2.218.487 2.975 1.244a4.262 4.262 0 011.243 2.975z"/><path d="M49.703 30.617v-6.113a4.224 4.224 0 014.218-4.219 4.224 4.224 0 014.219 4.22v6.112a4.224 4.224 0 01-4.218 4.22c-2.326.053-4.219-1.84-4.219-4.22zm-6.274-1.407v9.196a4.224 4.224 0 01-4.218 4.22 4.163 4.163 0 01-2.975-1.244 4.261 4.261 0 01-1.244-2.976V29.21a5.224 5.224 0 004.219 2.11c1.676-.054 3.244-.865 4.218-2.11z"/><path d="M34.938 25.964v-14.01a4.224 4.224 0 014.218-4.22 4.224 4.224 0 014.218 4.22v14.01a4.224 4.224 0 01-4.218 4.22c-2.326.054-4.218-1.894-4.218-4.22z"/></g><defs><clipPath id="clip0_889_206"><path fill="#fff" d="M0 0h108v74H0z"/></clipPath></defs></svg>