<svg width="59" height="93" viewBox="0 0 59 93" fill="none" xmlns="http://www.w3.org/2000/svg"><g clip-path="url(#clip0_889_403)" fill="#151515"><path d="M.809 25.931c1.012-9.125 6.173-17.012 13.51-21.6 0-.052 2.226-1.289 2.48-1.392-5.465 11.6-7.641 19.538-8.198 26.807-.152 2.165-.101 3.918.05 5.465C5.617 33.25 2.985 31.6.81 25.93zm14.116 28.663C6.374 49.542.656 40.159.605 29.384c1.974 3.712 3.947 6.496 7.742 9.899 1.316 1.185 2.227 2.423 2.935 4.072 1.214 2.887 3.137 7.733 3.643 11.239zm2.128-43.356c2.833 14.229 9.209 32.427 6.274 45.985-.05.206-.101.464-.152.67a22.163 22.163 0 01-3.592-1.083c-1.215-4.124-3.188-8.557-5.364-13.661-1.569-3.712-1.923-8.248-1.518-12.991.101-1.444.304-2.939.557-4.434.81-5.052 2.277-10.104 3.795-14.486z"/><path d="M32.386 58.408a29.938 29.938 0 01-3.036.155c-.81 0-1.569-.051-2.328-.103.354-1.65.607-3.145.709-4.382.91-13.197-5.617-32.478-9.817-45.366.607-1.7 1.214-3.247 1.72-4.588.304-.825.709-1.753 1.164-2.835A29.113 29.113 0 0129.35 0c3.44 0 6.679.619 9.715 1.701.91 10.672-1.214 18.92-4.554 29.952-2.834 9.64-4.099 17.58-2.125 26.755zm8.094-35.776c.254-1.238.507-2.526.658-3.764.658-4.588.81-10.516.152-16.239a29.594 29.594 0 018.299 5.826c-.152.464-.304.928-.506 1.34-2.176 5.052-4.048 7.011-7.439 11.29-.404.516-.81 1.031-1.163 1.547zm5.464 30.569a28.68 28.68 0 01-10.424 4.692c-.506-3.248-.708-6.444-.557-9.434.304-4.589 1.468-9.486 2.682-14.384.304-.618.152-.309.506-1.598 1.215-4.33 2.277-6.34 5.414-9.588 3.441-3.506 6.63-6.754 8.805-11.136 1.417 1.96 2.631 4.073 3.542 6.393C50.65 25.62 44.628 34.9 44.02 42.324c-.203 2.526.759 6.96 1.923 10.877z"/><path d="M58.089 29.282c0 8.506-3.542 16.187-9.26 21.497a65.767 65.767 0 01-.86-5.516c-.962-7.836 4.402-16.6 8.905-24.488a29.782 29.782 0 011.215 8.507zM0 73.565C0 71.4 4.15 71.4 5.768 71.4c1.012 0 1.923.464 2.581 1.186a4.086 4.086 0 011.063 2.732v5.774c0 1.134-.911 2.01-1.974 2.01H6.224v-7.784c0-.361-.152-.722-.405-.98-.202-.206-.455-.36-.708-.36-.456 0-1.316 0-1.771.154v6.96c0 1.134-.911 2.01-1.974 2.01H.051C0 79.854 0 76.864 0 73.565zm27.528-1.753l-1.872.155v-4.64h-1.315c-1.063 0-1.974.877-1.974 2.01v9.796c0 1.082.456 2.062 1.164 2.783.708.722 1.67 1.186 2.732 1.186h1.974c0-2.784-2.631-1.856-2.631-3.97v-4.897a1.989 1.989 0 001.872-2.062l.05-.36zm11.079 9.279c0 2.165-4.15 2.165-5.768 2.165-1.012 0-1.923-.463-2.581-1.185a4.086 4.086 0 01-1.063-2.733v-5.67c0-1.134.911-2.01 1.974-2.01h1.214v7.68c0 .361.152.722.405.98.202.206.455.36.708.36.456 0 1.316 0 1.771-.154v-6.856c0-1.134.911-2.01 1.974-2.01h1.315c.051 3.247.051 6.134.051 9.433zm19.229.207l.404.618c-1.366.98-2.681 1.496-4.402 1.34-7.286-.72-6.224-11.856.05-11.856 3.189 0 4.858 2.01 5.01 5.258.05 1.083-.708 1.96-1.67 1.96l-5.465.05c.102 1.238 1.215 1.96 2.278 2.063h.404c.405 0 .76-.052 1.063-.206.86-.31 1.77 0 2.328.773zm-6.224-4.846h4.807c-.152-1.547-.911-2.68-2.378-2.68-1.417-.052-2.379.927-2.43 2.68zm-10.776-2.578c0-.928.759-1.444 1.771-1.753 2.277-.773 4.301-.515 5.718-.515v.67c0 1.289-.709 1.907-1.67 1.907-1.366.052-1.214-.103-2.48.258v6.65c0 1.134-.91 2.01-1.973 2.01h-1.316c-.05-3.247-.05-5.98-.05-9.227zm-29.248-.052c.455-1.34 1.569-1.907 2.884-2.165 1.316-.258 2.884-.206 3.947.206.86.361 1.569.98 1.923 2.01.152.413.202.877.202 1.393v5.98c0 1.856-2.884 2.165-4.25 2.165-2.328-.052-5.263-1.083-5.263-3.867 0-3.093 3.795-4.175 6.325-4.175a1.74 1.74 0 00-.708-1.444c-.506-.309-1.164-.36-1.67 0-.81.516-1.67.619-2.53.258l-.86-.36zm5.768 7.527l.05-4.227c-1.72 0-3.237 1.288-3.237 2.371-.051 1.907 2.125 2.217 3.187 1.856zm41.491 4.486h-.152c-.101 0-.152.051-.152.154v5.31c0 .103.05.155.152.155h.152c.1 0 .151-.052.151-.155v-5.31c0-.103-.1-.154-.151-.154zm-3.237 1.443c-1.163 0-1.922.825-1.922 2.165s.758 2.165 1.922 2.165 1.873-.825 1.873-2.165-.76-2.165-1.873-2.165zm0 .412c.86 0 1.417.67 1.417 1.753 0 1.083-.556 1.753-1.366 1.753-.86 0-1.417-.67-1.417-1.753-.05-1.031.506-1.753 1.366-1.753zm-6.174-1.855h-.151c-.102 0-.152.051-.152.154v5.31c0 .103.05.155.152.155h.1c.102 0 .153-.052.153-.155v-.619c.253.619.759.928 1.416.928 1.114 0 1.822-.825 1.822-2.165s-.708-2.165-1.771-2.165c-.658 0-1.164.31-1.417.876V85.99c0-.103-.101-.154-.152-.154zm1.518 1.855c.81 0 1.367.67 1.367 1.753 0 1.083-.506 1.753-1.367 1.753-.86 0-1.366-.67-1.366-1.753 0-1.082.506-1.753 1.366-1.753zm-8.502-.31H42.3c-.101 0-.152.052-.152.156v3.763c0 .103.051.154.152.154h.203c.1 0 .151-.051.151-.154v-2.114c0-.773.355-1.443 1.164-1.443.658 0 .86.412.86 1.03v2.578c0 .104.051.155.152.155h.203c.1 0 .151-.051.151-.155v-2.32c0-.721.405-1.237 1.114-1.237.607 0 .91.31.91.98v2.629c0 .103.051.155.152.155h.203c.1 0 .151-.052.151-.155V88.67c0-.928-.607-1.29-1.264-1.29-.608 0-1.063.31-1.316.774-.152-.515-.557-.773-1.164-.773-.607 0-1.012.31-1.316.825v-.567c-.05-.155-.1-.258-.202-.258zm-1.414 0h-.152c-.05 0-.152.052-.152.104l-.96 2.63c-.052.205-.102.36-.254.772-.152-.464-.101-.36-.253-.721l-1.063-2.681c0-.052-.1-.103-.151-.103h-.101c-.051 0-.102.051-.152.051-.05.052-.05.103 0 .155l1.518 3.815c-.253.67-.405 1.134-.86 1.134h-.152c-.05 0-.101 0-.152.052-.05.051-.05.051-.05.103v.103c0 .103.05.154.151.154h.304c.658 0 .81-.463 1.163-1.391l1.468-4.022v-.154c-.05.051-.101 0-.152 0zm-4.1 1.032c-.101-.722-.708-1.134-1.518-1.134-.91 0-1.467.412-1.467 1.134 0 .876.91.98 1.518 1.134.405.103 1.113.206 1.113.825 0 .464-.455.773-1.113.773-.709 0-1.113-.31-1.164-.876 0-.103-.101-.155-.152-.155h-.152c-.05 0-.1 0-.1.052-.051.051-.051.103-.051.154.1.825.657 1.29 1.619 1.29.961 0 1.568-.516 1.568-1.238 0-.825-.81-1.031-1.467-1.186-.759-.154-1.164-.258-1.164-.773 0-.412.354-.67.911-.67.607 0 .961.206 1.063.773 0 .103.1.155.151.155h.152c.05 0 .101 0 .101-.052.152-.103.152-.154.152-.206zm-7.235 1.753h-.152c-.05 0-.152.051-.152.103-.152.618-.607.928-1.214.928-.962 0-1.366-.773-1.366-1.65h3.086v-.155c0-1.134-.556-2.113-1.77-2.113-1.064 0-1.823.928-1.823 2.217 0 1.288.709 2.113 1.822 2.113.86 0 1.417-.464 1.67-1.237 0-.052 0-.103-.05-.155.05-.051 0-.051-.051-.051zm-.253-1.031h-2.631c.1-.774.455-1.444 1.315-1.444.76 0 1.265.567 1.316 1.444zm-4.048-1.754h-.152c-.05 0-.152.052-.152.104l-.81 2.32c-.151.36-.253.773-.354 1.134-.101-.36-.253-.722-.354-1.083l-.91-2.371c0-.052-.102-.103-.153-.103h-.151c-.051 0-.102.051-.152.051-.05.052-.05.103 0 .155l1.417 3.763c0 .052.1.104.151.104h.304c.05 0 .152-.052.152-.104l1.366-3.763v-.155c-.101 0-.152-.051-.202-.051zm-4.606 0h-.152c-.101 0-.152.052-.152.156v3.763c0 .103.05.154.152.154h.152c.101 0 .152-.051.152-.154v-3.764c0-.051-.051-.154-.152-.154zm0-1.545h-.152c-.101 0-.152.051-.152.154v.464c0 .103.05.155.152.155h.152c.101 0 .152-.052.152-.155v-.464c0-.103-.051-.154-.152-.154zm-2.072 1.546h-.658V86.3c0-.103-.05-.155-.152-.155h-.202c-.101 0-.152.052-.152.155v1.082h-.557c-.1 0-.151.052-.151.155v.052c0 .103.05.154.151.154h.557v2.32c0 .619 0 .722.05.876.102.413.507.464.81.464h.304c.101 0 .152-.103.152-.154 0-.052 0-.103-.051-.103-.05-.052-.101-.052-.101-.052h-.152c-.506 0-.506-.258-.506-.67v-2.578h.658c.101 0 .152-.051.152-.154v-.052c0-.155-.051-.258-.152-.258zm-2.885 3.712c-.304 0-.304-.155-.304-.413v-2.217c0-.773-.556-1.185-1.467-1.185-.91 0-1.467.412-1.569 1.185 0 .052 0 .104.05.155.052.052.052.052.102.052h.152c.101 0 .152-.052.152-.155.1-.567.455-.825 1.062-.825.658 0 1.063.207 1.063.877 0 .206-.05.309-.152.412-.202.155-.557.155-1.164.206-1.012.103-1.467.516-1.467 1.237 0 .722.506 1.135 1.316 1.135.657 0 1.163-.31 1.518-.825 0 .36.05.722.505.722.102 0 .152 0 .254-.052.1 0 .151-.103.151-.155 0-.051 0-.103-.05-.103-.05-.051-.101-.051-.152-.051zm-.76-1.856v.67c0 .773-.606 1.237-1.365 1.237-.557 0-.911-.31-.911-.773 0-.67.708-.773 1.214-.876.506 0 .911-.052 1.063-.258zm-3.997.928h-.152c-.05 0-.152.051-.152.103-.152.618-.607.928-1.214.928-.962 0-1.367-.773-1.367-1.65h3.087v-.155c0-1.134-.557-2.113-1.771-2.113-1.063 0-1.822.928-1.822 2.217 0 1.288.709 2.113 1.822 2.113.86 0 1.417-.464 1.67-1.237 0-.052 0-.103-.05-.155.05-.051 0-.051-.051-.051zm-.253-1.031H8.248c.101-.774.455-1.444 1.316-1.444.708 0 1.214.567 1.265 1.444zM6.728 87.33c-.709.05-1.063.36-1.366 1.03v-.825c0-.103-.051-.154-.152-.154h-.152c-.101 0-.152.051-.152.154V91.3c0 .103.05.154.152.154h.152c.101 0 .152-.051.152-.154v-1.495c0-.516.05-.774.1-1.031a1.31 1.31 0 011.266-.98c.101 0 .152-.052.152-.155v-.154c0-.052 0-.103-.05-.103 0 0-.052-.052-.102-.052zM3.34 90.01h-.152c-.101 0-.152.052-.152.155-.152.67-.557 1.03-1.214 1.03-.81 0-1.316-.67-1.316-1.752 0-1.083.506-1.753 1.366-1.753.557 0 .962.31 1.113.877 0 .051.102.103.152.103h.152c.05 0 .101 0 .152-.052.05-.051.05-.103.05-.154-.151-.774-.759-1.186-1.619-1.186C.76 87.278 0 88.154 0 89.495c0 1.288.708 2.113 1.872 2.113.911 0 1.468-.567 1.67-1.392 0-.051 0-.103-.05-.154-.051 0-.102-.052-.152-.052z"/></g><defs><clipPath id="clip0_889_403"><path fill="#fff" d="M0 0h59v93H0z"/></clipPath></defs></svg>