<svg width="112" height="74" viewBox="0 0 112 74" fill="none" xmlns="http://www.w3.org/2000/svg"><g clip-path="url(#clip0_889_393)" fill="#151515"><path d="M106.046 64.502V60.01l-2.829-9.382h3.22l1.314 6.274 1.229-6.274h3.01l-2.772 9.382v4.492h-3.172zm-19.938 0V50.618h4.486l2.468 10.97-.181-10.97h2.877v13.875H91.29l-2.505-11.26.21 11.27h-2.887zm-17.014 0l2.038-13.874h5.078l2.096 13.874h-3.258l-.381-3.408h-2.02l-.38 3.408h-3.173zm3.839-5.722h1.448l-.695-6.545-.753 6.545zm-14.318-1.772v-2.943c0-.387-.067-.649-.19-.784-.134-.145-.382-.213-.753-.213h-.705v4.938h.705c.371 0 .629-.068.752-.214.124-.135.19-.396.19-.784zm-1.658 3.554v3.94h-3.181V50.618h3.2c1.953 0 3.249.252 3.887.765.638.503.953 1.443.953 2.798v2.808c0 1.336-.315 2.266-.934 2.779-.619.523-1.753.784-3.4.784h-.525v.01zm-24.644 3.94V50.618h4.61l1.83 10.96 1.924-10.96h4.535v13.875h-2.877l.19-11.725-2.115 11.725h-3.524l-2.049-11.725.23 11.725h-2.754v.01zm-8.374-3.727c0 .958-.057 1.636-.152 2.043a2.392 2.392 0 01-.543 1.035 2.12 2.12 0 01-1.038.64c-.41.125-1.2.184-2.363.184-1.162 0-1.953-.059-2.372-.184a2.26 2.26 0 01-1.038-.64 2.57 2.57 0 01-.553-1.065c-.114-.416-.162-1.094-.162-2.013v-6.42c0-.92.057-1.587.162-2.013a2.48 2.48 0 01.553-1.056c.285-.31.657-.532 1.114-.658.467-.126 1.23-.184 2.296-.184 1.058 0 1.82.068 2.277.184.457.126.829.339 1.114.658.258.29.448.64.553 1.056.105.416.162 1.084.162 2.013v6.42h-.01zm-3.258.455v-7.32c0-.387-.057-.649-.171-.774-.114-.136-.333-.194-.667-.194-.343 0-.571.068-.686.194-.114.135-.171.387-.171.774v7.32c0 .397.057.658.171.784.115.126.343.194.686.194.334 0 .562-.068.667-.194.124-.126.171-.387.171-.784zM4.84 55.314V53.91c0-.397-.057-.658-.152-.784-.105-.126-.314-.194-.638-.194-.315 0-.515.068-.62.184-.104.126-.152.387-.152.784v7.32c0 .397.048.658.152.784.105.126.305.184.62.184.324 0 .533-.068.638-.194.105-.125.152-.387.152-.784v-1.897h2.896v1.442c0 .94-.047 1.607-.143 2.024a2.618 2.618 0 01-.485 1.055c-.239.31-.543.523-.924.64-.382.125-1.067.183-2.068.183-1.162 0-1.953-.058-2.372-.184a2.31 2.31 0 01-1.038-.639 2.568 2.568 0 01-.553-1.065C.057 62.362 0 61.694 0 60.775v-6.41c0-.92.057-1.588.162-2.014a2.48 2.48 0 01.552-1.055c.286-.31.658-.533 1.115-.658.467-.126 1.229-.184 2.296-.184.914 0 1.572.058 1.99.184.42.125.744.338.982.639.229.29.4.648.495 1.074.096.426.143 1.094.143 2.014v.959H4.84v-.01zm87.153 18.619v-5.441h3.754v.58h-3.163v1.782h3.077v.552h-3.077v1.956h3.162v.57h-3.753zm-7.811 0v-5.441h2.41c.6 0 1.02.087 1.238.27.229.185.343.504.343.969v.823c0 .28-.057.513-.171.668-.115.165-.286.261-.524.3.257.058.428.174.533.33.105.164.153.416.153.764v1.307h-.62V72.81c0-.388-.057-.649-.18-.794-.124-.136-.363-.204-.715-.204h-1.896v2.12h-.571zm2.295-4.86h-1.705v2.178h1.705c.448 0 .734-.058.877-.165.143-.116.21-.31.21-.6v-.639c0-.29-.067-.494-.2-.61-.134-.116-.43-.164-.887-.164zm-9.669 4.86v-5.441h3.754v.58h-3.163v1.782h3.077v.552h-3.077v1.956h3.163v.57h-3.754zm-8.23 0v-5.441h.59v2.352h3.087v-2.352h.59v5.44h-.59v-2.516h-3.087v2.517h-.59zm-9.86 0v-5.441h3.753v.58H59.31v1.782h3.077v.552H59.31v1.956h3.162v.57h-3.753zm-8.374 0v-5.441h.915l2.905 4.85v-4.85h.591v5.44h-.915l-2.905-4.86v4.86h-.59zm-4.563 0v-5.441h.6v5.44h-.6zm-7.059 0v-5.441h.581v4.87h3.03v.57h-3.61zm-8.278-3.64c0-.698.143-1.182.429-1.453.286-.27.78-.416 1.505-.416h.676c.658 0 1.143.116 1.458.339.314.232.467.58.467 1.065v.232h-.61v-.058c0-.378-.095-.639-.286-.784-.19-.145-.543-.223-1.067-.223h-.467c-.371 0-.628.02-.79.058a.88.88 0 00-.41.213.69.69 0 00-.219.358c-.038.155-.067.426-.067.814v1.549c0 .387.02.658.067.813a.654.654 0 00.22.358c.113.097.247.165.4.213.152.04.418.059.8.059h.466c.343 0 .581-.02.724-.059a.963.963 0 00.372-.184.67.67 0 00.2-.338c.038-.146.057-.388.057-.736v-.34h-1.486v-.551h2.096v.91c0 .697-.143 1.181-.43 1.452-.285.272-.78.407-1.504.407h-.677c-.714 0-1.219-.135-1.505-.407-.285-.27-.428-.755-.428-1.452v-1.84h.01zm-8.126 3.64l1.982-5.441h.971l1.991 5.44h-.61l-.514-1.393h-2.705l-.496 1.394h-.619zm1.315-1.927h2.315l-1.067-2.933h-.19l-1.058 2.933zm-7.383-2.933v-.581h4.001v.58h-1.705v4.86h-.6v-4.86H16.25z"/><path fill-rule="evenodd" clip-rule="evenodd" d="M36.198 9.256a5.27 5.27 0 007.545 0 5.48 5.48 0 000-7.668 5.27 5.27 0 00-7.545 0c-2.077 2.12-2.077 5.548 0 7.668zm32.058-7.668a5.48 5.48 0 000 7.668 5.27 5.27 0 007.545 0 5.48 5.48 0 000-7.668 5.27 5.27 0 00-7.545 0zM52.155 25.474a5.27 5.27 0 007.545 0 5.48 5.48 0 000-7.668 5.27 5.27 0 00-7.545 0c-2.077 2.12-2.077 5.547 0 7.668zm16.101 16.363a5.27 5.27 0 007.545 0 5.48 5.48 0 000-7.669 5.27 5.27 0 00-7.545 0 5.48 5.48 0 000 7.669zm-32.055-7.669a5.48 5.48 0 000 7.669 5.27 5.27 0 007.545 0 5.48 5.48 0 000-7.669 5.27 5.27 0 00-7.545 0zm.572-8.762a5.27 5.27 0 007.545 0 5.492 5.492 0 001.333-5.412c-.857-2.866 5.211-9.227 8.298-8.327 1.8.523 3.83.068 5.249-1.375a5.48 5.48 0 000-7.668 5.29 5.29 0 00-7.555-.01c-1.4 1.424-1.857 3.457-1.371 5.268.819 3.05-5.306 9.43-8.098 8.52a5.272 5.272 0 00-5.41 1.326c-2.077 2.12-2.077 5.558.009 7.678zm15.44 15.684a5.27 5.27 0 007.545 0 5.491 5.491 0 001.334-5.412c-.858-2.866 5.21-9.227 8.297-8.327 1.8.523 3.83.068 5.249-1.375a5.48 5.48 0 000-7.668 5.27 5.27 0 00-7.545 0c-1.4 1.423-1.858 3.457-1.372 5.267.82 3.05-5.306 9.43-8.097 8.52a5.277 5.277 0 00-5.41 1.327c-2.087 2.12-2.087 5.557 0 7.668z"/></g><defs><clipPath id="clip0_889_393"><path fill="#fff" d="M0 0h112v74H0z"/></clipPath></defs></svg>