<svg width="133" height="36" viewBox="0 0 133 36" fill="none" xmlns="http://www.w3.org/2000/svg"><path d="M57.888 12.736c1.102 0 2.056.183 2.862.55.818.368 1.446.89 1.884 1.565.439.676.658 1.476.658 2.4 0 .912-.22 1.712-.658 2.4-.438.675-1.066 1.197-1.884 1.564-.806.356-1.76.533-2.862.533h-2.506v3.431h-2.88V12.736h5.386zm-.16 6.666c.865 0 1.523-.184 1.973-.551.45-.38.676-.913.676-1.6 0-.7-.225-1.233-.676-1.6-.45-.38-1.108-.569-1.973-.569h-2.346v4.32h2.346zm11.195-3.929c1.481 0 2.62.356 3.413 1.067.794.7 1.191 1.76 1.191 3.182v5.457h-2.595v-1.19c-.522.888-1.493 1.332-2.915 1.332-.735 0-1.375-.124-1.92-.373-.534-.249-.942-.592-1.227-1.03a2.684 2.684 0 01-.427-1.494c0-.889.332-1.588.996-2.098.676-.51 1.712-.764 3.11-.764h2.205c0-.605-.184-1.067-.55-1.387-.368-.332-.92-.497-1.654-.497a4.75 4.75 0 00-1.511.248c-.486.155-.9.368-1.245.64L64.8 16.63c.521-.368 1.144-.652 1.867-.854a8.497 8.497 0 012.257-.302zm-.213 7.982c.474 0 .895-.107 1.262-.32.367-.225.628-.551.782-.978v-.977h-1.902c-1.138 0-1.707.373-1.707 1.12 0 .355.137.64.41.853.284.201.669.302 1.155.302zm13.496 1.262a2.94 2.94 0 01-1.014.462 5.268 5.268 0 01-1.244.142c-1.138 0-2.02-.29-2.649-.87-.616-.581-.924-1.435-.924-2.56v-3.929h-1.476v-2.133h1.476V13.5h2.773v2.329h2.382v2.133h-2.382v3.893c0 .403.1.717.302.942.213.213.51.32.889.32.438 0 .812-.118 1.12-.355l.746 1.955zm7.369-9.244c1.185 0 2.14.356 2.862 1.067.735.71 1.102 1.766 1.102 3.164v5.475h-2.773v-5.048c0-.759-.166-1.322-.498-1.69-.332-.378-.811-.568-1.44-.568-.699 0-1.256.22-1.67.658-.415.427-.623 1.066-.623 1.92v4.728h-2.773V11.99h2.773v4.622a3.591 3.591 0 011.334-.836 4.695 4.695 0 011.706-.302zm10.762 9.92c-.984 0-1.938-.13-2.862-.392-.913-.272-1.647-.622-2.204-1.048l.977-2.17c.534.392 1.168.706 1.902.943a7.15 7.15 0 002.205.356c.817 0 1.422-.119 1.813-.356.391-.249.587-.575.587-.978a.893.893 0 00-.356-.729c-.225-.2-.521-.36-.889-.48a16.672 16.672 0 00-1.457-.39c-.948-.226-1.725-.45-2.33-.676a3.85 3.85 0 01-1.564-1.084c-.426-.498-.64-1.162-.64-1.991 0-.723.196-1.375.587-1.956.391-.592.978-1.06 1.76-1.404.794-.344 1.76-.516 2.898-.516.794 0 1.57.095 2.328.285.759.19 1.422.462 1.991.817l-.889 2.187c-1.149-.652-2.299-.978-3.448-.978-.806 0-1.404.13-1.796.391-.379.261-.569.605-.569 1.032 0 .426.22.746.658.96.45.2 1.132.402 2.045.604.948.225 1.724.45 2.328.675.605.225 1.12.581 1.547 1.067.438.486.658 1.143.658 1.973 0 .711-.202 1.363-.605 1.955-.391.581-.983 1.043-1.777 1.387-.795.344-1.76.515-2.898.515zm11.603-.072c-1.008 0-1.914-.207-2.72-.622a4.775 4.775 0 01-1.867-1.76c-.45-.746-.675-1.594-.675-2.542 0-.948.225-1.795.675-2.542a4.65 4.65 0 011.867-1.742c.806-.426 1.712-.64 2.72-.64 1.007 0 1.908.214 2.702.64a4.64 4.64 0 011.866 1.742c.45.747.676 1.594.676 2.542 0 .948-.226 1.796-.676 2.542a4.765 4.765 0 01-1.866 1.76c-.794.415-1.695.622-2.702.622zm0-2.275c.711 0 1.291-.237 1.742-.711.462-.486.693-1.132.693-1.938 0-.805-.231-1.445-.693-1.92-.451-.485-1.031-.728-1.742-.728-.712 0-1.298.243-1.76.729-.463.473-.694 1.113-.694 1.92 0 .805.231 1.451.694 1.937.462.474 1.048.711 1.76.711zm10.137-7.217h2.453v2.133h-2.382v7.217h-2.773v-7.217h-1.476v-2.133h1.476v-.427c0-1.09.32-1.955.96-2.595.652-.64 1.564-.96 2.737-.96.415 0 .806.047 1.174.142.379.083.693.207.942.373l-.729 2.01a1.896 1.896 0 00-1.12-.339c-.841 0-1.262.463-1.262 1.387v.409zm10.003 8.888c-.273.202-.61.356-1.013.462a5.27 5.27 0 01-1.245.142c-1.137 0-2.02-.29-2.648-.87-.617-.581-.925-1.435-.925-2.56v-3.929h-1.475v-2.133h1.475V13.5h2.773v2.329h2.383v2.133h-2.383v3.893c0 .403.101.717.303.942.213.213.509.32.888.32.439 0 .812-.118 1.12-.355l.747 1.955z" fill="#242424"/><path fill-rule="evenodd" clip-rule="evenodd" d="M40.234 6.36c.016.074.052.176.067.251.409 1.856.287 4.138-.412 6.843 0 0-.005.048-.032.069-.58 2.302-1.531 4.904-2.88 7.825-3.596 7.79-7.444 12.376-11.523 13.782-.449.143-.898.286-1.362.354-2.939.489-5.983-.599-9.152-3.289-1.578-1.307-3.178-3.033-4.787-5.102l-.752-.967c-.25-.322-.454-.64-.705-.962-1.58-2.31-2.725-4.446-3.38-6.453-.908-2.72-.912-5.163-.065-7.288.714-1.798 2.08-3.423 4.045-4.83 2.278-1.617 5.413-2.962 9.33-4.02a43.535 43.535 0 013.115-.762C26.592.788 30.515.511 33.463.977c3.796.613 6.012 2.41 6.771 5.382z" fill="#3F8EFC"/><path fill-rule="evenodd" clip-rule="evenodd" d="M25.49 35.124c-.449.144-.898.287-1.363.355-2.943.49-5.99-.6-9.164-3.293-1.58-1.309-3.182-3.037-4.792-5.108l-.754-.968c-.25-.322-.454-.64-.705-.962-1.583-2.313-2.729-4.452-3.385-6.46 5.684 2.202 14.11 6.877 20.164 16.436z" fill="#fff" fill-opacity=".33"/><path fill-rule="evenodd" clip-rule="evenodd" d="M24.142 35.506c-2.943.489-5.99-.6-9.163-3.293-1.58-1.309-3.182-3.036-4.792-5.107-4.916-6.32-6.52-11.545-4.881-15.708 7.6 4.114 19.261 12.393 18.836 24.108z" fill="#FFFDFD" fill-opacity=".33"/><path fill-rule="evenodd" clip-rule="evenodd" d="M40.24 6.377c.015.075.05.177.066.252.408 1.855.287 4.136-.412 6.839 0 0-.005.048-.032.07-.58 2.3-1.53 4.9-2.878 7.82-3.986 8.67-8.275 13.347-12.88 14.13-2.937.487-5.98-.6-9.147-3.288-1.577-1.307-3.177-3.032-4.784-5.1-.522-.671-.976-1.31-1.43-1.949 6.027-.836 22.335-4.407 31.496-18.774z" fill="#fff" fill-opacity=".12"/><path fill-rule="evenodd" clip-rule="evenodd" d="M33.49.974c.163.044.657.126.773.164C19.609 5.779 12.125 19.142 9.422 26.079c-.25-.322-.454-.639-.705-.96-3.759-5.444-4.906-10.021-3.442-13.733.713-1.797 2.078-3.42 4.042-4.827 2.276-1.615 5.409-2.96 9.325-4.018a43.514 43.514 0 013.112-.76C26.65.764 30.544.509 33.49.974z" fill="#fff" fill-opacity=".12"/><path fill-rule="evenodd" clip-rule="evenodd" d="M40.33 6.666c.755 3.408-.344 8.31-3.296 14.704-6.52 14.157-13.876 17.768-22.069 10.832C20.394 30.1 35.438 22.917 40.33 6.666z" fill="#203FD8" fill-opacity=".25"/><path d="M9.345 6.593c-1.987 1.381-3.326 2.985-4.067 4.805-1.465 3.714-.316 8.296 3.446 13.743.203.317.454.64.705.962l.752.967c1.63 2.096 3.21 3.795 4.787 5.103 3.17 2.69 6.262 3.784 9.154 3.29 4.607-.783 8.925-5.485 12.887-14.139 1.349-2.922 2.3-5.523 2.88-7.826C26.866 6.508 10.283 6.58 9.345 6.593z" fill="url(#paint0_linear)"/><path fill-rule="evenodd" clip-rule="evenodd" d="M39.895 13.45s-.005.048-.032.07c-.58 2.302-1.531 4.904-2.88 7.825-3.988 8.675-8.28 13.356-12.887 14.139-2.94.488-5.984-.6-9.154-3.29-1.578-1.308-3.178-3.034-4.787-5.103l-.753-.967c-.25-.322-.454-.64-.704-.962-3.762-5.447-4.91-10.028-3.446-13.743.714-1.799 2.08-3.424 4.046-4.832 2.277-1.616 5.413-2.962 9.331-4.02a43.54 43.54 0 013.116-.762c1.404-.3 2.776-.531 4.021-.704-1.245.173-2.57.41-3.974.71a43.54 43.54 0 00-3.115.761c6.032 1.216 14.535 4.112 21.218 10.878z" fill="url(#paint1_linear)"/><defs><linearGradient id="paint0_linear" x1="12.489" y1="30.863" x2="28" y2="6.06" gradientUnits="userSpaceOnUse"><stop offset=".21" stop-color="#3F64FC" stop-opacity="0"/><stop offset=".929" stop-color="#3F64FC" stop-opacity=".91"/><stop offset="1" stop-color="#3F64FC"/></linearGradient><linearGradient id="paint1_linear" x1="14.641" y1="33.04" x2="27.238" y2="1.688" gradientUnits="userSpaceOnUse"><stop offset=".58" stop-color="#0042FF" stop-opacity="0"/><stop offset=".828" stop-color="#04F" stop-opacity=".59"/><stop offset=".917" stop-color="#004BFF" stop-opacity=".802"/><stop offset=".98" stop-color="#0056FF" stop-opacity=".953"/><stop offset="1" stop-color="#005CFF"/></linearGradient></defs></svg>